<svg xmlns="http://www.w3.org/2000/svg" viewBox="0 0 200 200"><g class="nc-icon-wrapper"><defs/><path class="a" d="M28.361 136.531a78.161 78.161 0 1 1 143.3-.042z" style="" fill="#b8ecff"/><path class="b" d="M28.361 136.489a78.166 78.166 0 0 0 143.278 0z" style="" fill="#daedf7"/><path class="c" d="M23.793 136.489h152.414" fill="none" stroke="#45413c" stroke-linecap="round" stroke-linejoin="round"/><path class="c" d="M15 136.489h4.885" fill="none" stroke="#45413c" stroke-linecap="round" stroke-linejoin="round"/><path class="c" d="M180.115 136.489H185" fill="none" stroke="#45413c" stroke-linecap="round" stroke-linejoin="round"/><g><path class="d" d="M89.949 166.062c0 2.608-15.506 4.723-34.633 4.723s-34.634-2.115-34.634-4.723 15.506-4.722 34.634-4.722 34.633 2.114 34.633 4.722z" fill="#45413c" opacity="0.15"/><path class="c" d="M171 121.368a5.58 5.58 0 0 1-10.462 0" fill="none" stroke="#45413c" stroke-linecap="round" stroke-linejoin="round"/><path class="c" d="M165.765 125.268v21.82" fill="none" stroke="#45413c" stroke-linecap="round" stroke-linejoin="round"/><path class="e" d="M171.343 113.013a3.092 3.092 0 0 0-3.088 3.088c0 .9.445 1.263 1.019 1.263h4.138c.573 0 1.019-.365 1.019-1.263a3.092 3.092 0 0 0-3.088-3.088z" stroke="#45413c" stroke-linecap="round" stroke-linejoin="round" fill="#c0dceb"/><path class="f" d="M174.057 117.147a.949.949 0 0 1 .021.3l-.409 3.041a1.02 1.02 0 0 1-1.01.884h-2.632a1.02 1.02 0 0 1-1.011-.884l-.408-3.041a.922.922 0 0 1 .021-.3.969.969 0 0 0 .645.217h4.138a.969.969 0 0 0 .645-.217z" stroke="#45413c" stroke-linecap="round" stroke-linejoin="round" fill="#ffe500"/><g><path class="e" d="M160.188 113.013a3.093 3.093 0 0 0-3.088 3.087c0 .9.446 1.263 1.02 1.263h4.138c.573 0 1.019-.365 1.019-1.263a3.092 3.092 0 0 0-3.089-3.087z" stroke="#45413c" stroke-linecap="round" stroke-linejoin="round" fill="#c0dceb"/><path class="f" d="M162.9 117.147a.949.949 0 0 1 .021.3l-.409 3.041a1.02 1.02 0 0 1-1.01.884h-2.632a1.02 1.02 0 0 1-1.011-.884l-.408-3.041a.922.922 0 0 1 .021-.3.969.969 0 0 0 .645.217h4.138a.969.969 0 0 0 .645-.217z" stroke="#45413c" stroke-linecap="round" stroke-linejoin="round" fill="#ffe500"/></g><g><path class="g" d="M151.681 58.978H47.551v86.983a1.128 1.128 0 0 0 1.127 1.127h101.876a1.128 1.128 0 0 0 1.127-1.127z" style="" fill="#ff6242"/><path class="h" d="M54.547 75h-7v-4.007h7a1.014 1.014 0 0 1 1.014 1.014v1.977A1.014 1.014 0 0 1 54.547 75z" stroke="#45413c" stroke-linecap="round" stroke-linejoin="round" fill="#e04122"/><path class="h" d="M50.542 84.343h-2.991v-4.005h2.991a1.014 1.014 0 0 1 1.014 1.014v1.977a1.014 1.014 0 0 1-1.014 1.014z" stroke="#45413c" stroke-linecap="round" stroke-linejoin="round" fill="#e04122"/><path class="h" d="M54.547 97.693h-7v-4h7a1.014 1.014 0 0 1 1.014 1.007v1.977a1.014 1.014 0 0 1-1.014 1.016z" stroke="#45413c" stroke-linecap="round" stroke-linejoin="round" fill="#e04122"/><rect class="h" x="67.576" y="83.008" width="8.01" height="4.005" rx="1.014" ry="1.014" stroke="#45413c" stroke-linecap="round" stroke-linejoin="round" fill="#e04122"/><rect class="h" x="116.971" y="83.008" width="8.01" height="4.005" rx="1.014" ry="1.014" stroke="#45413c" stroke-linecap="round" stroke-linejoin="round" fill="#e04122"/><rect class="h" x="98.281" y="73.663" width="8.01" height="4.005" rx="1.014" ry="1.014" stroke="#45413c" stroke-linecap="round" stroke-linejoin="round" fill="#e04122"/><path class="h" d="M54.547 113.713h-7v-4h7a1.014 1.014 0 0 1 1.014 1.014v1.973a1.014 1.014 0 0 1-1.014 1.013z" stroke="#45413c" stroke-linecap="round" stroke-linejoin="round" fill="#e04122"/><path class="h" d="M50.542 105.7h-2.991v-4h2.991a1.014 1.014 0 0 1 1.014 1.014v1.977a1.014 1.014 0 0 1-1.014 1.009z" stroke="#45413c" stroke-linecap="round" stroke-linejoin="round" fill="#e04122"/><path class="h" d="M50.542 123.058h-2.991v-4.005h2.991a1.014 1.014 0 0 1 1.014 1.014v1.977a1.014 1.014 0 0 1-1.014 1.014z" stroke="#45413c" stroke-linecap="round" stroke-linejoin="round" fill="#e04122"/><path class="h" d="M144.685 75h7v-4.007h-7a1.014 1.014 0 0 0-1.014 1.014v1.977A1.014 1.014 0 0 0 144.685 75z" stroke="#45413c" stroke-linecap="round" stroke-linejoin="round" fill="#e04122"/><path class="h" d="M148.69 84.343h2.991v-4.005h-2.991a1.014 1.014 0 0 0-1.014 1.014v1.977a1.014 1.014 0 0 0 1.014 1.014z" stroke="#45413c" stroke-linecap="round" stroke-linejoin="round" fill="#e04122"/><path class="h" d="M144.685 137.743h7v-4h-7a1.014 1.014 0 0 0-1.014 1.014v1.977a1.014 1.014 0 0 0 1.014 1.009z" stroke="#45413c" stroke-linecap="round" stroke-linejoin="round" fill="#e04122"/><path class="h" d="M148.684 147.088h1.87a1.128 1.128 0 0 0 1.127-1.127v-2.832h-3a1.008 1.008 0 0 0-1.008 1.008v1.943a1.008 1.008 0 0 0 1.011 1.008z" stroke="#45413c" stroke-linecap="round" stroke-linejoin="round" fill="#e04122"/><path class="h" d="M144.685 97.693h7v-4h-7a1.014 1.014 0 0 0-1.014 1.014v1.977a1.014 1.014 0 0 0 1.014 1.009z" stroke="#45413c" stroke-linecap="round" stroke-linejoin="round" fill="#e04122"/><path class="h" d="M144.685 113.713h7v-4h-7a1.014 1.014 0 0 0-1.014 1.014v1.973a1.014 1.014 0 0 0 1.014 1.013z" stroke="#45413c" stroke-linecap="round" stroke-linejoin="round" fill="#e04122"/><path class="h" d="M148.69 105.7h2.991v-4h-2.991a1.014 1.014 0 0 0-1.014 1.014v1.977a1.014 1.014 0 0 0 1.014 1.009z" stroke="#45413c" stroke-linecap="round" stroke-linejoin="round" fill="#e04122"/><path class="h" d="M148.69 123.058h2.991v-4.005h-2.991a1.014 1.014 0 0 0-1.014 1.014v1.977a1.014 1.014 0 0 0 1.014 1.014z" stroke="#45413c" stroke-linecap="round" stroke-linejoin="round" fill="#e04122"/><path class="i" d="M47.551 58.978H151.68v5.34H47.551z" style="" fill="#e04122"/><path class="c" d="M151.681 58.978H47.551v86.983a1.128 1.128 0 0 0 1.127 1.127h101.876a1.128 1.128 0 0 0 1.127-1.127z" fill="none" stroke="#45413c" stroke-linecap="round" stroke-linejoin="round"/><path class="j" d="M127.651 37.618a1.335 1.335 0 0 1-1.335-1.335v-9.345a1.335 1.335 0 0 0-1.335-1.335h-14.227a1.334 1.334 0 0 1-.819-.281L99.1 16.9a1.335 1.335 0 0 0-1.639 0l-10.833 8.422a1.339 1.339 0 0 1-.82.281H71.581a1.335 1.335 0 0 0-1.335 1.335v9.345a1.334 1.334 0 0 1-1.335 1.335H48.886a1.335 1.335 0 0 0-1.335 1.335V53.6a1.378 1.378 0 0 0 1.378 1.377h101.417a1.335 1.335 0 0 0 1.335-1.335V38.953a1.335 1.335 0 0 0-1.335-1.335z" stroke="#45413c" stroke-linecap="round" stroke-linejoin="round" fill="#f0f0f0"/><path class="g" d="M123.646 41.623a1.335 1.335 0 0 1-1.335-1.335v-9.345a1.335 1.335 0 0 0-1.335-1.335h-11.57a1.33 1.33 0 0 1-.8-.267L99.082 22.2a1.335 1.335 0 0 0-1.6 0l-9.523 7.142a1.33 1.33 0 0 1-.8.267H75.586a1.335 1.335 0 0 0-1.335 1.335v9.345a1.334 1.334 0 0 1-1.335 1.335H52.891a1.335 1.335 0 0 0-1.335 1.335v12.014h96.12V42.958a1.335 1.335 0 0 0-1.335-1.335z" style="" fill="#ff6242"/><path class="i" d="M74.251 35.95a1.335 1.335 0 0 1 1.335-1.335h45.39a1.335 1.335 0 0 1 1.335 1.335v-5.007a1.335 1.335 0 0 0-1.335-1.335h-11.57a1.33 1.33 0 0 1-.8-.267L99.082 22.2a1.335 1.335 0 0 0-1.6 0l-9.523 7.142a1.33 1.33 0 0 1-.8.267H75.586a1.335 1.335 0 0 0-1.335 1.335z" style="" fill="#e04122"/><path class="i" d="M52.891 46.63h20.025a1.335 1.335 0 0 0 1.335-1.33v-5.012a1.334 1.334 0 0 1-1.335 1.335H52.891a1.335 1.335 0 0 0-1.335 1.335v5.007a1.335 1.335 0 0 1 1.335-1.335z" style="" fill="#e04122"/><path class="i" d="M147.676 42.958a1.335 1.335 0 0 0-1.335-1.335h-22.7a1.335 1.335 0 0 1-1.335-1.335V45.3a1.335 1.335 0 0 0 1.335 1.335h22.7a1.335 1.335 0 0 1 1.335 1.335z" style="" fill="#e04122"/><path class="c" d="M123.646 41.623a1.335 1.335 0 0 1-1.335-1.335v-9.345a1.335 1.335 0 0 0-1.335-1.335h-11.57a1.33 1.33 0 0 1-.8-.267L99.082 22.2a1.335 1.335 0 0 0-1.6 0l-9.523 7.142a1.33 1.33 0 0 1-.8.267H75.586a1.335 1.335 0 0 0-1.335 1.335v9.345a1.334 1.334 0 0 1-1.335 1.335H52.891a1.335 1.335 0 0 0-1.335 1.335v12.014h96.12V42.958a1.335 1.335 0 0 0-1.335-1.335z" fill="none" stroke="#45413c" stroke-linecap="round" stroke-linejoin="round"/><rect class="j" x="42.211" y="54.973" width="114.142" height="4.005" rx="1.521" ry="1.521" stroke="#45413c" stroke-linecap="round" stroke-linejoin="round" fill="#f0f0f0"/><circle class="k" cx="98.281" cy="40.288" r="10.68" style="" fill="#f0f0f0"/><path class="l" d="M108.77 42.308a10.674 10.674 0 0 0-20.978 0 10.68 10.68 0 1 1 20.978 0z" style="" fill="#fff"/><circle class="c" cx="98.281" cy="40.288" r="10.68" fill="none" stroke="#45413c" stroke-linecap="round" stroke-linejoin="round"/><path class="g" d="M95.216 37.387a.24.24 0 0 1 .368.209 3.28 3.28 0 0 0 .631 2.061.238.238 0 0 0 .319.058 4.532 4.532 0 0 0 1.748-3.045 8.142 8.142 0 0 0 .116-3.122.24.24 0 0 1 .359-.248 9.907 9.907 0 0 1 4.842 8.421 5.412 5.412 0 0 1-5.334 5.59 5.49 5.49 0 0 1-3.049-9.924z" style="" fill="#ff6242"/><path class="i" d="M98.265 45.511a5.317 5.317 0 0 1-5.232-4.491 6.729 6.729 0 0 0-.071.971 5.32 5.32 0 0 0 5.3 5.32 5.412 5.412 0 0 0 5.334-5.59 10.966 10.966 0 0 0-.058-.909 5.382 5.382 0 0 1-5.273 4.699z" style="" fill="#e04122"/><path class="c" d="M95.216 37.387a.24.24 0 0 1 .368.209 3.28 3.28 0 0 0 .631 2.061.238.238 0 0 0 .319.058 4.532 4.532 0 0 0 1.748-3.045 8.142 8.142 0 0 0 .116-3.122.24.24 0 0 1 .359-.248 9.907 9.907 0 0 1 4.842 8.421 5.412 5.412 0 0 1-5.334 5.59 5.49 5.49 0 0 1-3.049-9.924z" fill="none" stroke="#45413c" stroke-linecap="round" stroke-linejoin="round"/><g><path class="m" d="M62.236 62.983a8.01 8.01 0 0 1 8.01 8.01V88.55a1.133 1.133 0 0 1-1.133 1.133H55.36a1.134 1.134 0 0 1-1.134-1.133V70.993a8.01 8.01 0 0 1 8.01-8.01z" stroke="#45413c" stroke-linecap="round" stroke-linejoin="round" fill="#fff"/><path class="n" d="M62.236 65.653a5.34 5.34 0 0 1 5.34 5.34V85.88a1.133 1.133 0 0 1-1.133 1.133H58.03a1.134 1.134 0 0 1-1.13-1.133V70.993a5.34 5.34 0 0 1 5.336-5.34z" style="" fill="#4acfff"/><path class="o" d="M62.236 65.653a5.338 5.338 0 0 1 4.639 2.693L56.9 78.586v-7.593a5.34 5.34 0 0 1 5.336-5.34z" style="" fill="#80ddff"/><path class="c" d="M62.236 65.653a5.34 5.34 0 0 1 5.34 5.34V85.88a1.133 1.133 0 0 1-1.133 1.133H58.03a1.134 1.134 0 0 1-1.13-1.133V70.993a5.34 5.34 0 0 1 5.336-5.34z" fill="none" stroke="#45413c" stroke-linecap="round" stroke-linejoin="round"/><path class="c" d="M62.236 65.653v21.36" fill="none" stroke="#45413c" stroke-linecap="round" stroke-linejoin="round"/><path class="c" d="M56.896 72.328h10.68" fill="none" stroke="#45413c" stroke-linecap="round" stroke-linejoin="round"/><path class="c" d="M56.896 80.338h10.68" fill="none" stroke="#45413c" stroke-linecap="round" stroke-linejoin="round"/><g><path class="m" d="M86.266 62.983a8.01 8.01 0 0 1 8.01 8.01V88.55a1.133 1.133 0 0 1-1.133 1.133H79.39a1.134 1.134 0 0 1-1.134-1.133V70.993a8.01 8.01 0 0 1 8.01-8.01z" stroke="#45413c" stroke-linecap="round" stroke-linejoin="round" fill="#fff"/><path class="n" d="M86.266 65.653a5.34 5.34 0 0 1 5.34 5.34V85.88a1.133 1.133 0 0 1-1.133 1.133H82.06a1.134 1.134 0 0 1-1.134-1.133V70.993a5.34 5.34 0 0 1 5.34-5.34z" style="" fill="#4acfff"/><path class="o" d="M86.266 65.653a5.338 5.338 0 0 1 4.639 2.693l-9.979 10.24v-7.593a5.34 5.34 0 0 1 5.34-5.34z" style="" fill="#80ddff"/><path class="c" d="M86.266 65.653a5.34 5.34 0 0 1 5.34 5.34V85.88a1.133 1.133 0 0 1-1.133 1.133H82.06a1.134 1.134 0 0 1-1.134-1.133V70.993a5.34 5.34 0 0 1 5.34-5.34z" fill="none" stroke="#45413c" stroke-linecap="round" stroke-linejoin="round"/><path class="c" d="M86.266 65.653v21.36" fill="none" stroke="#45413c" stroke-linecap="round" stroke-linejoin="round"/><path class="c" d="M80.926 72.328h10.68" fill="none" stroke="#45413c" stroke-linecap="round" stroke-linejoin="round"/><path class="c" d="M80.926 80.338h10.68" fill="none" stroke="#45413c" stroke-linecap="round" stroke-linejoin="round"/></g><g><path class="m" d="M111.631 62.983a8.01 8.01 0 0 1 8.01 8.01V88.55a1.133 1.133 0 0 1-1.133 1.133h-13.754a1.133 1.133 0 0 1-1.133-1.133V70.993a8.01 8.01 0 0 1 8.01-8.01z" stroke="#45413c" stroke-linecap="round" stroke-linejoin="round" fill="#fff"/><path class="n" d="M111.631 65.653a5.34 5.34 0 0 1 5.34 5.34V85.88a1.133 1.133 0 0 1-1.133 1.133h-8.414a1.133 1.133 0 0 1-1.133-1.133V70.993a5.34 5.34 0 0 1 5.34-5.34z" style="" fill="#4acfff"/><path class="o" d="M111.631 65.653a5.338 5.338 0 0 1 4.639 2.693l-9.979 10.24v-7.593a5.34 5.34 0 0 1 5.34-5.34z" style="" fill="#80ddff"/><path class="c" d="M111.631 65.653a5.34 5.34 0 0 1 5.34 5.34V85.88a1.133 1.133 0 0 1-1.133 1.133h-8.414a1.133 1.133 0 0 1-1.133-1.133V70.993a5.34 5.34 0 0 1 5.34-5.34z" fill="none" stroke="#45413c" stroke-linecap="round" stroke-linejoin="round"/><path class="c" d="M111.631 65.653v21.36" fill="none" stroke="#45413c" stroke-linecap="round" stroke-linejoin="round"/><path class="c" d="M106.291 72.328h10.68" fill="none" stroke="#45413c" stroke-linecap="round" stroke-linejoin="round"/><path class="c" d="M106.291 80.338h10.68" fill="none" stroke="#45413c" stroke-linecap="round" stroke-linejoin="round"/></g><g><path class="m" d="M135.661 62.983a8.01 8.01 0 0 1 8.01 8.01V88.55a1.133 1.133 0 0 1-1.133 1.133h-13.754a1.133 1.133 0 0 1-1.133-1.133V70.993a8.01 8.01 0 0 1 8.01-8.01z" stroke="#45413c" stroke-linecap="round" stroke-linejoin="round" fill="#fff"/><path class="n" d="M135.661 65.653a5.34 5.34 0 0 1 5.34 5.34V85.88a1.133 1.133 0 0 1-1.133 1.133h-8.414a1.133 1.133 0 0 1-1.133-1.133V70.993a5.34 5.34 0 0 1 5.34-5.34z" style="" fill="#4acfff"/><path class="o" d="M135.661 65.653a5.338 5.338 0 0 1 4.639 2.693l-9.979 10.24v-7.593a5.34 5.34 0 0 1 5.34-5.34z" style="" fill="#80ddff"/><path class="c" d="M135.661 65.653a5.34 5.34 0 0 1 5.34 5.34V85.88a1.133 1.133 0 0 1-1.133 1.133h-8.414a1.133 1.133 0 0 1-1.133-1.133V70.993a5.34 5.34 0 0 1 5.34-5.34z" fill="none" stroke="#45413c" stroke-linecap="round" stroke-linejoin="round"/><path class="c" d="M135.661 65.653v21.36" fill="none" stroke="#45413c" stroke-linecap="round" stroke-linejoin="round"/><path class="c" d="M130.321 72.328h10.68" fill="none" stroke="#45413c" stroke-linecap="round" stroke-linejoin="round"/><path class="c" d="M130.321 80.338h10.68" fill="none" stroke="#45413c" stroke-linecap="round" stroke-linejoin="round"/></g></g><g><path class="k" d="M99.616 96.358a22.7 22.7 0 0 0-22.695 22.695v28.035h45.39v-28.035a22.7 22.7 0 0 0-22.695-22.695z" style="" fill="#f0f0f0"/><path class="p" d="M99.616 96.358a22.7 22.7 0 0 0-22.695 22.695v2.67a22.7 22.7 0 0 1 45.39 0v-2.67a22.7 22.7 0 0 0-22.695-22.695z" style="" fill="#e0e0e0"/><path class="c" d="M99.616 96.358a22.7 22.7 0 0 0-22.695 22.695v28.035h45.39v-28.035a22.7 22.7 0 0 0-22.695-22.695z" fill="none" stroke="#45413c" stroke-linecap="round" stroke-linejoin="round"/><path class="o" d="M117.241 116.383a.645.645 0 0 0 .621-.823 19.09 19.09 0 0 0-36.721 0 .647.647 0 0 0 .621.823z" style="" fill="#80ddff"/><rect class="k" x="80.926" y="120.388" width="10.68" height="8.01" rx=".574" ry=".574" style="" fill="#f0f0f0"/><path class="p" d="M90.909 128.4h-9.286a.7.7 0 0 1-.7-.7v-2.67a.7.7 0 0 0 .7.7h9.286a.7.7 0 0 0 .7-.7v2.67a.7.7 0 0 1-.7.7z" style="" fill="#e0e0e0"/><rect class="c" x="80.926" y="120.388" width="10.68" height="8.01" rx=".574" ry=".574" fill="none" stroke="#45413c" stroke-linecap="round" stroke-linejoin="round"/><rect class="k" x="94.276" y="120.388" width="10.68" height="8.01" rx=".574" ry=".574" style="" fill="#f0f0f0"/><path class="p" d="M104.259 128.4h-9.286a.7.7 0 0 1-.7-.7v-2.67a.7.7 0 0 0 .7.7h9.286a.7.7 0 0 0 .7-.7v2.67a.7.7 0 0 1-.7.7z" style="" fill="#e0e0e0"/><rect class="c" x="94.276" y="120.388" width="10.68" height="8.01" rx=".574" ry=".574" fill="none" stroke="#45413c" stroke-linecap="round" stroke-linejoin="round"/><rect class="k" x="107.626" y="120.388" width="10.68" height="8.01" rx=".574" ry=".574" style="" fill="#f0f0f0"/><path class="p" d="M117.609 128.4h-9.286a.7.7 0 0 1-.7-.7v-2.67a.7.7 0 0 0 .7.7h9.286a.7.7 0 0 0 .7-.7v2.67a.7.7 0 0 1-.7.7z" style="" fill="#e0e0e0"/><rect class="c" x="107.626" y="120.388" width="10.68" height="8.01" rx=".574" ry=".574" fill="none" stroke="#45413c" stroke-linecap="round" stroke-linejoin="round"/><g><rect class="k" x="80.926" y="132.403" width="10.68" height="8.01" rx=".574" ry=".574" style="" fill="#f0f0f0"/><path class="p" d="M90.909 140.413h-9.286a.7.7 0 0 1-.7-.7v-2.67a.7.7 0 0 0 .7.7h9.286a.7.7 0 0 0 .7-.7v2.67a.7.7 0 0 1-.7.7z" style="" fill="#e0e0e0"/><rect class="c" x="80.926" y="132.403" width="10.68" height="8.01" rx=".574" ry=".574" fill="none" stroke="#45413c" stroke-linecap="round" stroke-linejoin="round"/></g><g><rect class="k" x="94.276" y="132.403" width="10.68" height="8.01" rx=".574" ry=".574" style="" fill="#f0f0f0"/><path class="p" d="M104.259 140.413h-9.286a.7.7 0 0 1-.7-.7v-2.67a.7.7 0 0 0 .7.7h9.286a.7.7 0 0 0 .7-.7v2.67a.7.7 0 0 1-.7.7z" style="" fill="#e0e0e0"/><rect class="c" x="94.276" y="132.403" width="10.68" height="8.01" rx=".574" ry=".574" fill="none" stroke="#45413c" stroke-linecap="round" stroke-linejoin="round"/></g><g><rect class="k" x="107.626" y="132.403" width="10.68" height="8.01" rx=".574" ry=".574" style="" fill="#f0f0f0"/><path class="p" d="M118.306 139.716a.7.7 0 0 1-.7.7h-9.286a.7.7 0 0 1-.7-.7v-2.67a.7.7 0 0 0 .7.7h9.286a.7.7 0 0 0 .7-.7z" style="" fill="#e0e0e0"/><rect class="c" x="107.626" y="132.403" width="10.68" height="8.01" rx=".574" ry=".574" fill="none" stroke="#45413c" stroke-linecap="round" stroke-linejoin="round"/></g><path class="n" d="M116.62 116.383a19.059 19.059 0 0 0-34.237 0h-.621a.647.647 0 0 1-.621-.823 19.09 19.09 0 0 1 36.721 0 .645.645 0 0 1-.621.823z" style="" fill="#4acfff"/><path class="c" d="M117.241 116.383a.645.645 0 0 0 .621-.823 19.09 19.09 0 0 0-36.7-.057.689.689 0 0 0 .662.88z" fill="none" stroke="#45413c" stroke-linecap="round" stroke-linejoin="round"/></g><g><path class="m" d="M70.483 134.042H56.66a1.1 1.1 0 0 1-1.1-1.1v-25.6h16.021v25.6a1.1 1.1 0 0 1-1.098 1.1z" stroke="#45413c" stroke-linecap="round" stroke-linejoin="round" fill="#fff"/><path class="n" d="M67.778 131.372h-8.413a1.134 1.134 0 0 1-1.134-1.134v-20.226h10.68v20.226a1.134 1.134 0 0 1-1.133 1.134z" style="" fill="#4acfff"/><path class="o" d="M58.231 126.68L68.911 116v-5.988h-10.68v16.668z" style="" fill="#80ddff"/><path class="c" d="M67.778 131.372h-8.413a1.134 1.134 0 0 1-1.134-1.134v-20.226h10.68v20.226a1.134 1.134 0 0 1-1.133 1.134z" fill="none" stroke="#45413c" stroke-linecap="round" stroke-linejoin="round"/><path class="c" d="M63.571 110.012v21.36" fill="none" stroke="#45413c" stroke-linecap="round" stroke-linejoin="round"/><path class="c" d="M58.231 116.687h10.68" fill="none" stroke="#45413c" stroke-linecap="round" stroke-linejoin="round"/><path class="c" d="M58.231 124.697h10.68" fill="none" stroke="#45413c" stroke-linecap="round" stroke-linejoin="round"/><path class="p" d="M71.73 111.347H55.413a1.186 1.186 0 0 1-1.186-1.186v-.261a9.236 9.236 0 0 1 9.236-9.236h.216a9.236 9.236 0 0 1 9.237 9.236v.257a1.186 1.186 0 0 1-1.186 1.19z" style="" fill="#e0e0e0"/><path class="k" d="M72.434 110.981a9.237 9.237 0 0 0-8.756-6.309h-.214a9.237 9.237 0 0 0-8.755 6.309 1.437 1.437 0 0 1-.482-1.076 9.236 9.236 0 0 1 9.237-9.237h.214a9.237 9.237 0 0 1 9.238 9.237 1.437 1.437 0 0 1-.482 1.076z" style="" fill="#f0f0f0"/><path class="c" d="M71.73 111.347H55.413a1.186 1.186 0 0 1-1.186-1.186v-.261a9.236 9.236 0 0 1 9.236-9.236h.216a9.236 9.236 0 0 1 9.237 9.236v.257a1.186 1.186 0 0 1-1.186 1.19z" fill="none" stroke="#45413c" stroke-linecap="round" stroke-linejoin="round"/></g><g><path class="m" d="M143.907 134.042h-13.823a1.1 1.1 0 0 1-1.1-1.1v-25.6h16.02v25.6a1.1 1.1 0 0 1-1.097 1.1z" stroke="#45413c" stroke-linecap="round" stroke-linejoin="round" fill="#fff"/><path class="n" d="M141.2 131.372h-8.413a1.134 1.134 0 0 1-1.133-1.134v-20.226h10.68v20.226a1.134 1.134 0 0 1-1.134 1.134z" style="" fill="#4acfff"/><path class="o" d="M131.656 126.68l10.68-10.68v-5.988h-10.68v16.668z" style="" fill="#80ddff"/><path class="c" d="M141.2 131.372h-8.413a1.134 1.134 0 0 1-1.133-1.134v-20.226h10.68v20.226a1.134 1.134 0 0 1-1.134 1.134z" fill="none" stroke="#45413c" stroke-linecap="round" stroke-linejoin="round"/><path class="c" d="M136.996 110.012v21.36" fill="none" stroke="#45413c" stroke-linecap="round" stroke-linejoin="round"/><path class="c" d="M131.656 116.687h10.68" fill="none" stroke="#45413c" stroke-linecap="round" stroke-linejoin="round"/><path class="c" d="M131.656 124.697h10.68" fill="none" stroke="#45413c" stroke-linecap="round" stroke-linejoin="round"/><path class="p" d="M145.154 111.347h-16.317a1.186 1.186 0 0 1-1.186-1.186v-.261a9.237 9.237 0 0 1 9.237-9.236h.216a9.237 9.237 0 0 1 9.237 9.236v.257a1.186 1.186 0 0 1-1.187 1.19z" style="" fill="#e0e0e0"/><path class="k" d="M145.859 110.981a9.237 9.237 0 0 0-8.756-6.309h-.214a9.237 9.237 0 0 0-8.756 6.309 1.437 1.437 0 0 1-.482-1.076 9.237 9.237 0 0 1 9.238-9.237h.214a9.237 9.237 0 0 1 9.238 9.237 1.441 1.441 0 0 1-.482 1.076z" style="" fill="#f0f0f0"/><path class="c" d="M145.154 111.347h-16.317a1.186 1.186 0 0 1-1.186-1.186v-.261a9.237 9.237 0 0 1 9.237-9.236h.216a9.237 9.237 0 0 1 9.237 9.236v.257a1.186 1.186 0 0 1-1.187 1.19z" fill="none" stroke="#45413c" stroke-linecap="round" stroke-linejoin="round"/></g></g><g><path class="h" d="M34.021 136.151h20.324v23.614H26.008v-15.6a8.014 8.014 0 0 1 8.013-8.014z" stroke="#45413c" stroke-linecap="round" stroke-linejoin="round" fill="#e04122"/><path class="j" d="M54.345 144.023h6.297v15.742h-6.297z" stroke="#45413c" stroke-linecap="round" stroke-linejoin="round" fill="#f0f0f0"/><path class="q" d="M84.976 150.32H60.642v-8.592a.853.853 0 0 1 .853-.853h23.481a.853.853 0 0 1 .854.853v7.739a.853.853 0 0 1-.854.853z" fill="#daedf7" stroke="#45413c" stroke-linecap="round" stroke-linejoin="round"/><path class="h" d="M88.367 156.1a3.148 3.148 0 0 1-3.106 3.666H60.642v-9.446h24.095a3.147 3.147 0 0 1 3.105 2.631z" stroke="#45413c" stroke-linecap="round" stroke-linejoin="round" fill="#e04122"/><path class="j" d="M65.836 129.855h3.749a3.147 3.147 0 0 1 2.894 1.908l3.905 9.112H65.836z" stroke="#45413c" stroke-linecap="round" stroke-linejoin="round" fill="#f0f0f0"/><path class="q" d="M21.99 134.411a3.146 3.146 0 0 0 2.816 1.74h41.03v-6.3H22.259a1.573 1.573 0 0 0-1.408 2.278z" fill="#daedf7" stroke="#45413c" stroke-linecap="round" stroke-linejoin="round"/><path class="j" d="M24.648 153.468h6.8a.853.853 0 0 1 .853.853v5.444h-7.653a1.788 1.788 0 0 1-1.788-1.788v-2.721a1.789 1.789 0 0 1 1.788-1.788z" stroke="#45413c" stroke-linecap="round" stroke-linejoin="round" fill="#f0f0f0"/><path class="r" d="M34.023 136.151a8.015 8.015 0 0 0-8.015 8.015v3h15.743v-11.02z" style="" fill="#00b8f0"/><path class="n" d="M40.335 136.151h-6.312a8.015 8.015 0 0 0-8.015 8.015v3h3.307z" style="" fill="#4acfff"/><path class="c" d="M34.023 136.151a8.015 8.015 0 0 0-8.015 8.015v3h15.743v-11.02z" fill="none" stroke="#45413c" stroke-linecap="round" stroke-linejoin="round"/><path class="s" d="M40.177 159.765a4.723 4.723 0 1 0 4.722-4.723 4.722 4.722 0 0 0-4.722 4.723z" stroke="#45413c" stroke-linecap="round" stroke-linejoin="round" fill="#87898c"/><path class="s" d="M70.087 159.765a4.723 4.723 0 1 0 4.723-4.723 4.723 4.723 0 0 0-4.723 4.723z" stroke="#45413c" stroke-linecap="round" stroke-linejoin="round" fill="#87898c"/><path class="f" d="M80.721 134.577h1.746a1.788 1.788 0 0 1 1.788 1.789v4.509h-5.322v-4.509a1.789 1.789 0 0 1 1.788-1.789z" stroke="#45413c" stroke-linecap="round" stroke-linejoin="round" fill="#ffe500"/><path class="c" d="M79.533 140.875v9.445" fill="none" stroke="#45413c" stroke-linecap="round" stroke-linejoin="round"/><path class="c" d="M73.235 140.875v9.445" fill="none" stroke="#45413c" stroke-linecap="round" stroke-linejoin="round"/><path class="c" d="M66.939 140.875v9.445" fill="none" stroke="#45413c" stroke-linecap="round" stroke-linejoin="round"/><path class="c" d="M57.493 129.855v6.296" fill="none" stroke="#45413c" stroke-linecap="round" stroke-linejoin="round"/><path class="c" d="M51.196 129.855v6.296" fill="none" stroke="#45413c" stroke-linecap="round" stroke-linejoin="round"/><path class="c" d="M44.899 129.855v6.296" fill="none" stroke="#45413c" stroke-linecap="round" stroke-linejoin="round"/><path class="c" d="M38.602 129.855v6.296" fill="none" stroke="#45413c" stroke-linecap="round" stroke-linejoin="round"/><path class="c" d="M32.305 129.855v6.296" fill="none" stroke="#45413c" stroke-linecap="round" stroke-linejoin="round"/><path class="c" d="M26.008 129.855v6.296" fill="none" stroke="#45413c" stroke-linecap="round" stroke-linejoin="round"/><path class="t" d="M54.345 153.468h6.297v6.297h-6.297z" stroke="#45413c" stroke-linecap="round" stroke-linejoin="round" fill="#bdbec0"/></g></g></g></svg>